<svg width="128" height="128" viewBox="0 0 128 128" fill="none" xmlns="http://www.w3.org/2000/svg">
  <defs>
    <linearGradient id="grad1" x1="0%" y1="0%" x2="100%" y2="100%">
      <stop offset="0%" style="stop-color:#667eea;stop-opacity:1" />
      <stop offset="100%" style="stop-color:#764ba2;stop-opacity:1" />
    </linearGradient>
  </defs>
  
  <!-- Background circle -->
  <circle cx="64" cy="64" r="60" fill="url(#grad1)" stroke="#fff" stroke-width="4"/>
  
  <!-- Robot head -->
  <rect x="44" y="32" width="40" height="32" rx="8" fill="#fff" opacity="0.9"/>
  
  <!-- Eyes -->
  <circle cx="52" cy="44" r="3" fill="#667eea"/>
  <circle cx="76" cy="44" r="3" fill="#667eea"/>
  
  <!-- Antenna -->
  <line x1="64" y1="32" x2="64" y2="24" stroke="#fff" stroke-width="2" stroke-linecap="round"/>
  <circle cx="64" cy="22" r="2" fill="#fff"/>
  
  <!-- Mouth/screen -->
  <rect x="48" y="52" width="32" height="8" rx="2" fill="#667eea" opacity="0.7"/>
  
  <!-- Form/document -->
  <rect x="32" y="72" width="64" height="40" rx="4" fill="#fff" opacity="0.9" stroke="#667eea" stroke-width="2"/>
  
  <!-- Form lines -->
  <line x1="40" y1="84" x2="88" y2="84" stroke="#667eea" stroke-width="2" opacity="0.6"/>
  <line x1="40" y1="92" x2="72" y2="92" stroke="#667eea" stroke-width="2" opacity="0.6"/>
  <line x1="40" y1="100" x2="80" y2="100" stroke="#667eea" stroke-width="2" opacity="0.6"/>
  
  <!-- AI magic sparkles -->
  <circle cx="24" cy="40" r="1.5" fill="#fff" opacity="0.8"/>
  <circle cx="104" cy="36" r="1" fill="#fff" opacity="0.6"/>
  <circle cx="96" cy="56" r="1.5" fill="#fff" opacity="0.8"/>
  <circle cx="28" cy="88" r="1" fill="#fff" opacity="0.6"/>
</svg>